 http://desibbrg.org/images/66952052392581364616.gif 
http://desibbrg.org/images/37789675199790017657.jpg 
http://desibbrg.org/images/11663353499892358679.png 
http://desibbrg.org/images/81744144865908938561.png 
http://desibbrg.org/images/79768292674400345528.png 
http://desibbrg.org/images/08174219878232810252.png


Media Info - 
General - 
Format                                   : AVI
Format/Info                              : Audio Video Interleave
File size                                : 697 MiB
Duration                                 : 1h 59mn
Overall bit rate                         : 818 Kbps

Video - 
ID                                       : 0
Format                                   : MPEG-4 Visual
Format profile                           : Advanced Simple@L5
Format settings, BVOP                    : 2
Format settings, QPel                    : No
Format settings, GMC                     : No warppoints
Format settings, Matrix                  : Default (H.263)
Codec ID                                 : XVID
Codec ID/Hint                            : XviD
Duration                                 : 1h 59mn
Bit rate                                 : 681 Kbps
Width                                    : 688 pixels
Height                                   : 288 pixels
Display aspect ratio                     : 2.40:1
Frame rate                               : 29.970 fps
Color space                              : YUV
Chroma subsampling                       : 4:2:0
Bit depth                                : 8 bits
Scan type                                : Progressive
Compression mode                         : Lossy
Bits/(Pixel*Frame)                       : 0.115
Stream size                              : 581 MiB (83%)
Writing library                          : XviD 1.2.1 (UTC 2008-12-04)

Audio - 
Format                                   : AC-3
Format/Info                              : Audio Coding 3
Mode extension                           : CM (complete main)
Format settings, Endianness              : Big
Codec ID                                 : 2000
Duration                                 : 1h 59mn
Bit rate mode                            : Constant
Bit rate                                 : 128 Kbps
Channel(s)                               : 6 channels
Channel positions                        : Front: L C R, Side: L R, LFE
Sampling rate                            : 48.0 KHz
Bit depth                                : 16 bits
Compression mode                         : Lossy
Stream size                              : 109 MiB (16%)
Alignment                                : Aligned on interleaves
Interleave, duration                     : 64 ms (1.92 video frames)
Interleave, preload duration             : 192 ms

Ripper : K@rtik

Seeding 24x7... Extreme Seeding...


Enjoy!
